<svg version="1.1" id="Layer_1" xmlns="http://www.w3.org/2000/svg" xmlns:xlink="http://www.w3.org/1999/xlink" x="0px" y="0px"
	 width="100%" viewBox="0 0 3327 508" enable-background="new 0 0 3327 508" xml:space="preserve">
<path fill="#FFFFFF" opacity="1.000000" stroke="none" 
	d="
M2476.000000,509.000000 
	C1650.666626,509.000000 825.833313,509.000000 1.000000,509.000000 
	C1.000000,339.666656 1.000000,170.333328 1.000000,1.000000 
	C1110.000000,1.000000 2219.000000,1.000000 3328.000000,1.000000 
	C3328.000000,170.333328 3328.000000,339.666656 3328.000000,509.000000 
	C3044.166748,509.000000 2760.333252,509.000000 2476.000000,509.000000 
M533.500000,2.999579 
	C372.346893,2.999579 211.193756,2.993614 50.040649,3.042107 
	C46.798233,3.043083 43.455338,3.285140 40.329899,4.082967 
	C18.798433,9.579279 2.916663,29.260044 2.936825,51.254017 
	C3.061635,187.409409 2.992594,323.564972 3.041801,459.720490 
	C3.042973,462.962952 3.306869,466.294037 4.068483,469.433319 
	C9.273215,490.886658 29.069441,507.058502 51.015141,507.050476 
	C274.996765,506.968536 498.978394,507.004608 722.960022,506.957916 
	C726.202393,506.957245 729.539978,506.701752 732.671631,505.919067 
	C754.237732,500.529236 770.114014,480.141266 770.087036,458.745361 
	C769.916077,323.256683 770.039246,187.767654 769.872131,52.278950 
	C769.864624,46.218174 768.951172,39.789444 766.797302,34.169147 
	C760.166138,16.865850 743.069885,3.032243 722.984558,3.017042 
	C660.156372,2.969495 597.328186,2.999579 533.500000,2.999579 
M2047.548462,238.039825 
	C2037.358276,211.074997 2027.131470,184.123962 2016.988281,157.141510 
	C2006.446411,129.098297 1995.849609,101.074203 1985.581177,72.930756 
	C1982.891846,65.559784 1978.655396,60.220371 1970.767944,59.441624 
	C1963.180664,58.692524 1955.479126,59.020786 1947.827881,59.017410 
	C1934.006592,59.011318 1928.021729,65.154984 1928.018433,78.590714 
	C1927.987427,205.583405 1928.000000,332.576080 1928.000000,459.568787 
	C1928.000000,460.402069 1927.883789,461.254669 1928.018188,462.065643 
	C1929.212769,469.268372 1930.534180,476.853638 1941.276245,477.974396 
	C1948.798828,478.759216 1956.550293,479.705017 1963.953003,478.721741 
	C1974.689331,477.295654 1979.090576,471.744995 1979.074097,460.935577 
	C1978.942017,373.940796 1979.000000,286.945709 1979.000000,199.950714 
	C1979.000000,198.148346 1979.000000,196.345978 1979.000000,193.864365 
	C1979.562012,194.799057 1979.839966,195.130310 1979.979736,195.512115 
	C1988.282227,218.201721 1996.647583,240.868805 2004.848999,263.594940 
	C2018.517456,301.470154 2032.063721,339.389496 2045.693115,377.278870 
	C2056.542236,407.438995 2067.406006,437.593994 2078.343018,467.722351 
	C2080.343262,473.232422 2084.045410,477.328339 2090.170898,477.928436 
	C2096.878906,478.585632 2103.710205,479.383698 2110.364258,478.772491 
	C2116.337158,478.223816 2122.526123,476.478516 2124.999756,469.578644 
	C2129.510498,456.996399 2134.050781,444.424713 2138.595459,431.854767 
	C2152.560303,393.230072 2166.527100,354.606049 2180.504639,315.985870 
	C2191.467041,285.696869 2202.443604,255.413177 2213.419189,225.129059 
	C2216.757324,215.919128 2220.112793,206.715576 2223.460205,197.509125 
	C2223.640137,197.565308 2223.820068,197.621506 2224.000000,197.677689 
	C2224.000000,199.509171 2224.000000,201.340637 2224.000000,203.172119 
	C2224.000000,288.333893 2224.000000,373.495667 2224.000000,458.657440 
	C2224.000000,459.657379 2223.897461,460.669678 2224.016357,461.655304 
	C2224.978760,469.645264 2227.210938,477.072876 2237.359619,478.022491 
	C2243.739502,478.619507 2250.168945,478.959137 2256.574951,478.944427 
	C2269.901611,478.913849 2275.970215,472.997070 2275.974854,459.506378 
	C2276.017334,332.513672 2276.000000,205.520996 2276.000000,78.528305 
	C2276.000000,77.695023 2276.107178,76.845444 2275.983643,76.030937 
	C2274.783936,68.129677 2273.013672,60.979431 2262.819580,60.060017 
	C2253.296631,59.201160 2243.641113,58.658527 2234.126709,59.268951 
	C2227.950195,59.665234 2221.869385,62.004204 2219.299561,69.160782 
	C2213.584229,85.077065 2207.627930,100.907921 2201.662354,116.733131 
	C2191.889648,142.657425 2181.950195,168.518906 2172.233887,194.464172 
	C2163.591553,217.540894 2155.239502,240.726074 2146.611328,263.808105 
	C2133.809814,298.055084 2120.884033,332.255890 2107.992676,366.469299 
	C2106.038330,371.656494 2103.983398,376.805847 2101.587646,382.968719 
	C2099.362305,376.659454 2097.635254,371.465210 2095.707764,366.346588 
	C2084.978516,337.857147 2074.158691,309.401581 2063.456787,280.901917 
	C2058.192139,266.882477 2053.114502,252.792984 2047.548462,238.039825 
M1549.000000,306.500000 
	C1549.000000,293.501495 1549.084717,280.502258 1548.973022,267.504730 
	C1548.883911,257.124817 1542.346313,250.094681 1532.086792,250.063980 
	C1484.092163,249.920349 1436.095947,249.847870 1388.102783,250.153870 
	C1380.336426,250.203400 1373.130981,252.974976 1372.030518,263.104492 
	C1371.285400,269.964020 1370.956299,276.914398 1371.082642,283.812408 
	C1371.281494,294.679047 1376.485474,302.284424 1389.391724,302.132935 
	C1423.050293,301.737915 1456.716553,302.000000 1490.379761,302.000000 
	C1492.153076,302.000000 1493.926514,302.000000 1496.000000,302.000000 
	C1496.000000,318.167297 1496.091797,333.802094 1495.971924,349.435272 
	C1495.869019,362.870453 1493.912720,375.842926 1488.422363,388.410522 
	C1481.977783,403.162445 1471.801636,413.832642 1457.648682,421.048645 
	C1440.744995,429.667175 1422.391235,431.978668 1403.854248,432.863434 
	C1394.468628,433.311432 1384.961792,432.842621 1375.606689,431.862488 
	C1365.466797,430.800140 1355.178467,429.578400 1345.418091,426.799225 
	C1325.253296,421.057465 1309.187866,409.734924 1300.304932,389.805908 
	C1294.352051,376.450836 1292.190918,362.241638 1292.170288,347.979858 
	C1292.088867,291.562317 1292.571289,235.142838 1293.128418,178.726883 
	C1293.193481,172.139191 1294.286377,165.350632 1296.163818,159.029755 
	C1302.936035,136.229324 1317.189575,120.691597 1340.214355,112.702461 
	C1353.675171,108.031815 1367.417114,106.160950 1381.256958,105.220291 
	C1399.832031,103.957787 1418.510376,104.879288 1436.750610,109.115547 
	C1450.944824,112.412109 1464.356812,118.043083 1474.820923,128.492996 
	C1489.370239,143.022461 1494.622925,161.655899 1495.923096,181.577454 
	C1496.399658,188.878922 1495.487305,196.282776 1496.128662,203.558838 
	C1496.946655,212.840057 1498.598267,218.240463 1508.833740,219.635727 
	C1517.821899,220.860931 1527.151855,220.404388 1536.253784,219.698349 
	C1542.989014,219.175903 1547.459351,214.669983 1547.904297,207.685287 
	C1548.358765,200.549667 1547.830444,193.357422 1548.037354,186.198776 
	C1548.423706,172.832092 1546.249756,159.861206 1543.060547,146.927795 
	C1536.373413,119.809410 1522.313843,97.507195 1499.552490,81.326103 
	C1473.621216,62.891346 1443.582886,56.035503 1412.537354,54.274052 
	C1392.659912,53.146259 1372.593384,52.933716 1352.750977,56.892826 
	C1337.659912,59.903877 1322.720947,63.213276 1308.719727,69.750618 
	C1294.303589,76.481743 1281.229248,85.208229 1271.026367,97.585297 
	C1265.665527,104.088570 1260.248413,110.739662 1256.140503,118.045815 
	C1243.024902,141.373001 1239.414062,167.186127 1239.141602,193.363739 
	C1238.643921,241.186951 1238.882202,289.019592 1239.090820,336.847076 
	C1239.137329,347.527527 1239.998413,358.236298 1241.067505,368.873444 
	C1242.977783,387.879883 1247.973389,405.962402 1257.867310,422.566437 
	C1268.507446,440.422882 1282.950073,454.124634 1301.155029,464.045105 
	C1314.758789,471.458344 1329.263794,475.891205 1344.347168,479.365479 
	C1361.067383,483.216827 1377.965576,484.511780 1394.856934,484.282288 
	C1410.340698,484.071899 1425.918701,482.295288 1441.226685,479.805176 
	C1460.284180,476.705200 1478.524170,470.658325 1494.776733,459.675140 
	C1516.867920,444.746307 1532.578125,424.947510 1540.819336,399.461212 
	C1546.646484,381.440521 1548.280151,362.756195 1548.921753,343.993561 
	C1549.337280,331.842377 1549.000000,319.665405 1549.000000,306.500000 
M1129.668823,288.054169 
	C1135.165649,285.362823 1140.896484,283.059265 1146.115479,279.907715 
	C1161.910522,270.369202 1173.912476,257.059326 1181.691406,240.440445 
	C1189.693848,223.343811 1191.346313,204.747986 1191.909790,186.141876 
	C1192.129150,178.901505 1191.566040,171.610245 1190.939697,164.378540 
	C1190.193970,155.771591 1189.636719,147.070480 1187.880493,138.643021 
	C1181.693970,108.958214 1164.272095,87.633621 1137.399170,74.220329 
	C1120.116089,65.593742 1101.260254,61.890991 1082.189941,60.165432 
	C1069.010864,58.972942 1055.692139,59.088127 1042.434570,59.045940 
	C1002.438110,58.918674 962.440918,58.948860 922.444275,59.028698 
	C909.069763,59.055397 903.030762,65.029984 903.026123,78.473770 
	C902.982239,205.463715 903.000000,332.453674 903.000000,459.443634 
	C903.000000,460.276886 902.895508,461.125671 903.016296,461.941010 
	C904.218384,470.054657 906.125427,476.951721 916.151611,477.951813 
	C924.340149,478.768585 932.769836,479.779144 940.822266,478.695068 
	C951.167786,477.302307 956.157104,473.696930 956.096252,460.390717 
	C955.859802,408.729218 956.000000,357.065979 956.000000,305.403412 
	C956.000000,303.650848 956.000000,301.898254 956.000000,300.000336 
	C992.841797,300.000336 1028.995361,299.977112 1065.148315,300.100342 
	C1066.368164,300.104492 1068.153931,301.305695 1068.699829,302.424988 
	C1070.885010,306.905365 1072.585938,311.618500 1074.643066,316.165405 
	C1088.080322,345.865997 1101.563599,375.545746 1115.031982,405.232269 
	C1124.699707,426.541718 1134.281616,447.890930 1144.099976,469.130829 
	C1146.367798,474.036713 1150.067993,477.743866 1156.033447,477.998810 
	C1164.276978,478.351105 1172.567139,479.355927 1180.754639,478.819916 
	C1190.521606,478.180481 1200.507568,471.713409 1194.973022,457.467316 
	C1193.572876,453.863403 1191.944458,450.345825 1190.356445,446.817627 
	C1177.905762,419.155853 1165.461670,391.490997 1152.969849,363.847809 
	C1144.594360,345.313354 1136.128662,326.819763 1127.737671,308.292358 
	C1125.287231,302.881775 1122.954712,297.417847 1120.518677,291.865723 
	C1123.683960,290.607422 1126.344238,289.549866 1129.668823,288.054169 
M2666.597900,331.875031 
	C2661.374023,332.389771 2657.506836,335.698151 2657.223633,340.333954 
	C2656.523682,351.784851 2656.399902,363.345551 2657.136719,374.791809 
	C2658.187500,391.115417 2663.041504,406.477600 2671.273438,420.726105 
	C2684.430664,443.498779 2703.739258,459.415466 2727.531006,469.672455 
	C2753.117676,480.703339 2780.417969,484.147095 2808.033936,484.858948 
	C2816.017090,485.064758 2824.131348,484.204926 2832.027588,482.886810 
	C2846.388428,480.489502 2860.987061,478.547455 2874.843262,474.311188 
	C2898.072266,467.209381 2918.662354,454.944427 2933.743652,435.423798 
	C2940.193359,427.075836 2945.807617,417.664520 2949.783691,407.913574 
	C2957.160156,389.823395 2960.482910,370.889038 2958.164795,351.048401 
	C2956.625977,337.880524 2954.273193,325.019073 2948.491211,313.141052 
	C2937.969971,291.526550 2920.734131,276.373718 2899.942627,265.012726 
	C2874.208984,250.951340 2846.026855,243.720581 2818.033447,236.014557 
	C2793.007568,229.125473 2767.685303,222.883377 2744.995361,209.781235 
	C2737.940430,205.707428 2731.581543,199.838715 2726.142578,193.695038 
	C2718.079102,184.586609 2717.453125,173.055573 2717.907959,161.316452 
	C2718.553467,144.650635 2726.029785,131.802048 2739.006104,122.061592 
	C2755.824707,109.437149 2775.715820,105.815491 2795.968750,105.260452 
	C2809.524658,104.888947 2823.285889,106.115295 2836.708740,108.207207 
	C2855.514648,111.137962 2872.404297,118.639290 2884.653564,134.163361 
	C2892.075928,143.569824 2896.745605,154.076614 2896.973877,166.224899 
	C2897.114746,173.721985 2896.429932,181.278183 2897.137939,188.710434 
	C2898.124756,199.068604 2900.637695,206.108643 2914.472900,206.007843 
	C2920.805664,205.961700 2927.142334,206.129364 2933.471436,205.972595 
	C2945.959229,205.663208 2949.214844,199.758728 2949.839111,190.299927 
	C2950.880615,174.510620 2949.760986,158.717712 2945.934570,143.297379 
	C2937.922852,111.013283 2918.936279,87.344589 2889.509521,71.828117 
	C2868.750244,60.881645 2846.261475,55.930416 2823.304199,54.322662 
	C2804.441895,53.001705 2785.397461,53.132637 2766.492920,56.821819 
	C2744.642090,61.086071 2723.887451,67.506584 2705.851807,81.024338 
	C2690.193115,92.760490 2678.703613,107.689438 2671.989258,126.112587 
	C2666.498779,141.176193 2664.259277,156.768661 2664.979980,172.805298 
	C2665.547119,185.428528 2668.350586,197.522583 2673.532715,209.006912 
	C2683.365479,230.798615 2700.737549,245.039612 2721.254150,256.027863 
	C2747.843018,270.268250 2777.099121,276.799377 2805.771729,284.899902 
	C2828.925537,291.441254 2852.170654,297.677826 2873.436279,309.237366 
	C2885.505127,315.797699 2895.667480,324.595245 2901.871338,337.411652 
	C2906.364014,346.692108 2906.099854,356.435028 2906.008545,366.266876 
	C2905.822021,386.314819 2896.806152,401.965973 2881.309082,413.848846 
	C2864.835938,426.480408 2845.343262,431.787811 2825.076416,432.723511 
	C2809.465820,433.444183 2793.644043,432.530090 2778.089355,430.793060 
	C2757.222412,428.462799 2738.510742,420.486023 2724.071533,404.506775 
	C2714.852783,394.304840 2709.736816,382.204498 2709.056885,368.435913 
	C2708.728271,361.785736 2709.559570,355.048096 2708.878662,348.451965 
	C2707.626709,336.325714 2704.643799,331.965363 2694.676514,331.173828 
	C2685.586670,330.451996 2676.381836,331.183685 2666.597900,331.875031 
M3309.000000,351.500000 
	C3309.000000,259.352539 3309.000977,167.205048 3308.999023,75.057571 
	C3308.999023,66.472015 3305.335449,61.340595 3297.013916,60.137901 
	C3290.038574,59.129776 3282.889893,59.103298 3275.814697,59.048878 
	C3262.015625,58.942745 3256.030518,65.146568 3256.018799,78.598564 
	C3255.972900,131.920975 3256.000000,185.243469 3256.000000,238.565918 
	C3256.000000,240.321304 3256.000000,242.076691 3256.000000,243.658630 
	C3193.608643,243.658630 3131.884033,243.658630 3070.000000,243.658630 
	C3070.000000,241.495926 3070.000000,239.673950 3070.000000,237.851990 
	C3070.000000,183.529739 3070.002197,129.207489 3069.998291,74.885231 
	C3069.997559,66.379356 3066.348877,61.386688 3057.841064,60.137775 
	C3050.869629,59.114346 3043.717041,59.085033 3036.642578,59.052967 
	C3023.121338,58.991673 3017.012207,65.041931 3017.010254,78.770882 
	C3016.992432,195.747025 3017.000000,312.723175 3017.000000,429.699310 
	C3017.000000,440.197174 3016.728760,450.704224 3017.083496,461.190063 
	C3017.382568,470.029846 3020.911621,477.457184 3030.389648,478.022675 
	C3038.767334,478.522461 3047.331055,479.653168 3055.530762,478.500793 
	C3067.576172,476.807922 3070.128662,471.113586 3070.088135,460.150940 
	C3069.892334,407.329102 3070.000000,354.506165 3070.000000,301.683594 
	C3070.000000,299.904297 3070.000000,298.125000 3070.000000,296.253174 
	C3132.214355,296.253174 3193.938477,296.253174 3256.000000,296.253174 
	C3256.000000,298.300964 3256.000000,300.099762 3256.000000,301.898590 
	C3256.000000,354.554535 3255.864014,407.211060 3256.096924,459.865967 
	C3256.154053,472.812317 3260.452637,477.028259 3270.355957,478.492767 
	C3278.317627,479.670105 3286.744873,479.698853 3294.696289,478.479523 
	C3306.960449,476.598785 3309.161865,470.649506 3309.090820,459.977478 
	C3308.852051,424.153046 3309.000000,388.326019 3309.000000,351.500000 
M2352.000000,186.500000 
	C2352.000000,277.481537 2351.978516,368.463074 2352.022949,459.444611 
	C2352.029541,473.075195 2358.176514,478.955627 2371.358398,478.967712 
	C2444.510254,479.034943 2517.662354,479.000031 2590.814209,479.000000 
	C2591.647461,479.000000 2592.499023,479.113800 2593.310791,478.981903 
	C2602.635742,477.467316 2610.584229,475.046234 2610.045898,461.438873 
	C2609.782471,454.783966 2610.138428,448.106018 2609.945801,441.446259 
	C2609.838135,437.719604 2608.965088,434.336365 2606.041260,431.340454 
	C2602.288330,427.495117 2597.851562,427.012543 2593.085938,427.011200 
	C2532.264893,426.994202 2471.443604,427.000000 2410.622559,427.000000 
	C2408.849121,427.000000 2407.075684,427.000000 2405.278809,427.000000 
	C2405.278809,383.072693 2405.278809,339.679077 2405.278809,296.000000 
	C2407.360352,296.000000 2409.165771,296.000000 2410.971191,296.000000 
	C2455.462158,296.000000 2499.953369,296.000000 2544.444336,296.000000 
	C2552.442871,296.000000 2560.441650,296.052368 2568.439453,295.983917 
	C2575.209717,295.925995 2581.365479,292.855865 2582.216797,285.037384 
	C2583.287598,275.204437 2583.194824,265.141937 2582.421875,255.271118 
	C2582.176514,252.140320 2578.715820,248.281403 2575.698975,246.604767 
	C2572.217041,244.669556 2567.600830,244.113632 2563.473877,244.101089 
	C2512.484619,243.946182 2461.494629,244.000000 2410.504883,244.000000 
	C2408.742676,244.000000 2406.980469,244.000000 2405.320312,244.000000 
	C2405.320312,199.322586 2405.320312,155.262115 2405.320312,111.000000 
	C2435.283936,111.000000 2464.927734,111.000000 2494.571533,111.000000 
	C2527.564941,110.999992 2560.558350,110.958702 2593.551758,111.023270 
	C2604.508545,111.044716 2610.543213,104.998123 2610.007080,94.589325 
	C2609.955566,93.592171 2610.000000,92.590088 2610.000000,91.590286 
	C2610.000000,86.924561 2609.708740,82.237083 2610.055176,77.597221 
	C2611.062500,64.105225 2603.418457,59.124073 2591.347900,59.093357 
	C2517.863281,58.906345 2444.377686,58.934181 2370.892578,59.062283 
	C2358.064697,59.084641 2352.118652,64.863739 2352.057129,78.021866 
	C2351.890137,113.847221 2352.000000,149.673859 2352.000000,186.500000 
M1884.044922,63.570625 
	C1881.247070,62.045105 1878.560669,59.512321 1875.629639,59.187592 
	C1867.620972,58.300301 1859.483398,57.796848 1851.445435,58.175053 
	C1843.672852,58.540768 1837.856201,62.387974 1835.176880,70.413857 
	C1821.195801,112.293694 1807.092407,154.132889 1792.954102,195.960037 
	C1785.730225,217.331696 1778.268555,238.622940 1771.049438,259.996216 
	C1760.633667,290.834412 1750.340088,321.713928 1739.995239,352.576141 
	C1736.139526,364.079102 1732.286377,375.582916 1728.376099,387.253235 
	C1727.648926,386.744568 1727.248047,386.620117 1727.168579,386.386383 
	C1716.433716,354.807190 1705.683838,323.232971 1695.018799,291.630188 
	C1680.282837,247.964905 1665.640137,204.268143 1650.902710,160.603363 
	C1640.648926,130.222992 1630.213013,99.903671 1620.077881,69.483948 
	C1618.170410,63.758915 1614.671631,59.830841 1609.004639,59.192413 
	C1600.501831,58.234531 1591.818970,57.606689 1583.323486,58.266243 
	C1576.838013,58.769760 1569.657349,60.732647 1568.603516,69.056625 
	C1568.136963,72.741882 1568.766602,76.832008 1569.914673,80.412529 
	C1577.541626,104.200127 1585.373291,127.922943 1593.268921,151.623337 
	C1628.161377,256.360107 1663.107056,361.079193 1698.003540,465.814636 
	C1701.226074,475.486420 1705.454712,477.187622 1714.543823,477.862366 
	C1723.161133,478.502106 1731.890991,478.433167 1740.520508,477.881989 
	C1749.728882,477.293884 1754.385254,474.229767 1757.159790,465.822510 
	C1777.360596,404.607269 1797.880493,343.497345 1818.270264,282.344330 
	C1840.598022,215.378632 1862.863159,148.392059 1885.256714,81.448418 
	C1887.264404,75.446877 1888.398193,69.749184 1884.044922,63.570625 
z"/>
<path fill="#2C2D3C" opacity="1.000000" stroke="none" 
	d="
M534.000000,2.999579 
	C597.328186,2.999579 660.156372,2.969495 722.984558,3.017042 
	C743.069885,3.032243 760.166138,16.865850 766.797302,34.169147 
	C768.951172,39.789444 769.864624,46.218174 769.872131,52.278950 
	C770.039246,187.767654 769.916077,323.256683 770.087036,458.745361 
	C770.114014,480.141266 754.237732,500.529236 732.671631,505.919067 
	C729.539978,506.701752 726.202393,506.957245 722.960022,506.957916 
	C498.978394,507.004608 274.996765,506.968536 51.015141,507.050476 
	C29.069441,507.058502 9.273215,490.886658 4.068483,469.433319 
	C3.306869,466.294037 3.042973,462.962952 3.041801,459.720490 
	C2.992594,323.564972 3.061635,187.409409 2.936825,51.254017 
	C2.916663,29.260044 18.798433,9.579279 40.329899,4.082967 
	C43.455338,3.285140 46.798233,3.043083 50.040649,3.042107 
	C211.193756,2.993614 372.346893,2.999579 534.000000,2.999579 
M117.816170,304.697327 
	C128.788651,321.985046 139.816559,339.238129 150.673492,356.598114 
	C152.290695,359.183990 154.042526,360.159454 157.081833,360.120026 
	C169.740387,359.955688 182.403122,360.119080 195.062088,359.971313 
	C196.797287,359.951019 199.058060,359.298737 200.048737,358.094421 
	C200.653336,357.359467 199.635040,354.795197 198.766907,353.417175 
	C185.634476,332.571594 172.401840,311.789185 159.209274,290.981445 
	C158.302917,289.551880 157.528168,288.038910 156.589340,286.383301 
	C161.590393,285.205353 164.677948,286.274963 167.762268,289.798065 
	C187.399521,312.229187 207.286697,334.442139 227.205338,356.624817 
	C228.606476,358.185242 230.902069,359.861420 232.812683,359.898712 
	C246.967300,360.174835 261.130096,360.090973 275.289154,359.976624 
	C276.524994,359.966614 278.426208,359.203674 278.802856,358.289642 
	C279.216766,357.285034 278.586823,355.400909 277.778992,354.422211 
	C274.707520,350.700928 271.378998,347.191895 268.149200,343.601196 
	C246.428909,319.453888 224.655594,295.353638 203.090347,271.068665 
	C201.343964,269.102020 200.538269,265.936981 200.149628,263.207214 
	C199.451752,258.305298 200.460312,252.932251 198.850815,248.438354 
	C195.969986,240.394745 192.266846,232.500687 187.850830,225.181625 
	C178.228226,209.233200 168.704086,193.147919 154.312073,180.708099 
	C131.546768,161.030807 105.746941,149.472717 75.151085,149.909317 
	C59.328438,150.135117 43.499516,149.897736 27.674604,150.020737 
	C25.896883,150.034561 23.161507,150.568329 22.613087,151.703217 
	C22.013287,152.944412 23.069099,155.398193 24.034885,156.923630 
	C55.113060,206.010864 86.267776,255.049637 117.816170,304.697327 
M303.500000,243.998352 
	C295.000763,243.998413 286.499817,243.910843 278.003815,244.076553 
	C276.410706,244.107635 274.293121,244.741516 273.443695,245.869781 
	C272.864532,246.638992 273.739777,248.957779 274.531097,250.232010 
	C280.592834,259.992828 287.318420,269.383148 292.775787,279.463531 
	C296.746918,286.798645 301.552704,290.467255 309.995117,289.021881 
	C311.426147,288.776855 313.812347,289.656799 314.594238,290.807373 
	C319.177979,297.552216 323.557159,304.448242 327.720398,311.462341 
	C330.405792,315.986664 328.752167,318.923920 323.422455,318.997559 
	C314.661530,319.118652 307.519440,315.524536 302.701050,308.146545 
	C295.052643,296.435211 287.651245,284.562500 280.151550,272.754120 
	C264.794556,248.574280 249.399124,224.418564 234.168549,200.159363 
	C232.962112,198.237732 231.710159,194.647903 232.607819,193.504959 
	C233.911636,191.844803 237.211395,190.899826 239.558823,191.067291 
	C247.421722,191.628265 253.890900,195.193939 258.269867,201.928040 
	C263.444305,209.885452 268.358734,218.014664 273.664825,225.881226 
	C274.656952,227.352112 276.948914,228.766907 278.666199,228.797668 
	C291.994049,229.036346 305.328369,228.976044 318.660065,228.901367 
	C322.880249,228.877747 324.056183,226.787323 321.863647,223.230209 
	C317.756958,216.567688 313.413910,210.050735 309.312408,203.385117 
	C299.896545,188.082764 287.561646,175.628006 272.605072,165.778915 
	C257.036102,155.526566 240.290527,148.682297 221.455215,146.771561 
	C210.825684,145.693237 200.665665,145.967026 190.754410,149.927078 
	C178.275269,154.913147 173.229691,168.273056 175.324661,176.816391 
	C177.430069,185.402283 180.558044,194.159210 185.188354,201.632797 
	C207.990723,238.437119 230.408401,275.551666 254.960464,311.179382 
	C278.410583,345.208130 311.211884,364.800537 353.869965,363.697205 
	C360.686951,363.520905 367.869598,360.834290 374.069580,357.699249 
	C381.678253,353.851898 384.744293,346.493622 385.089355,337.830292 
	C385.522186,326.963654 381.577057,317.567322 376.065460,308.728333 
	C363.200745,288.097290 350.134796,267.590485 336.950439,247.162384 
	C335.935425,245.589783 333.380768,244.204849 331.492676,244.138962 
	C322.504425,243.825317 313.499176,243.998444 303.500000,243.998352 
M351.681427,242.809921 
	C357.373535,249.774887 363.078369,256.729553 368.755615,263.706604 
	C393.986969,294.714600 419.172089,325.760498 444.537628,356.658295 
	C445.969177,358.402069 448.844635,359.866180 451.074463,359.903961 
	C467.232330,360.177765 483.397064,360.073486 499.559479,360.038788 
	C505.015533,360.027069 505.869751,358.698456 503.582214,353.679901 
	C473.216553,287.061401 442.801819,220.465256 412.523773,153.806976 
	C411.101593,150.675964 409.377441,149.823029 406.128754,149.873978 
	C394.134766,150.062042 382.136078,149.941849 370.139160,149.951340 
	C363.253632,149.956802 362.561340,151.035645 365.529999,157.155823 
	C381.798462,190.695129 398.082703,224.226807 414.323578,257.779480 
	C415.145508,259.477448 415.615356,261.345825 416.249115,263.134888 
	C386.542175,226.599243 357.669922,189.789612 328.728027,153.034805 
	C327.701752,151.731491 325.998779,150.113525 324.588440,150.091370 
	C310.595520,149.871552 296.596771,149.867783 282.602081,150.020523 
	C279.134583,150.058365 278.211029,152.064468 280.297363,155.023178 
	C281.063721,156.109940 281.946106,157.115631 282.786987,158.149002 
	C305.600800,186.185425 328.416077,214.220642 351.681427,242.809921 
M722.009521,296.400879 
	C716.900391,285.303101 711.851196,274.177246 706.668274,263.114044 
	C698.529175,245.741058 690.213562,228.450439 682.132263,211.050827 
	C673.331482,192.102310 664.659363,173.093353 656.062683,154.051346 
	C654.475159,150.534943 652.233948,149.087097 648.356750,149.122543 
	C632.530579,149.267181 616.702271,149.182251 600.874756,149.185577 
	C597.709412,149.186249 594.526672,148.996368 591.382996,149.262131 
	C586.978394,149.634506 585.071289,152.743454 586.753296,156.350677 
	C592.368225,168.392029 598.046082,180.404709 603.553223,192.495163 
	C604.856384,195.356155 606.430359,197.532822 609.825745,196.993622 
	C613.774902,196.366455 615.381958,198.433914 616.759888,201.710541 
	C621.811401,213.722656 626.952148,225.701202 632.302429,237.582870 
	C641.945251,258.997467 651.797119,280.317871 661.498291,301.706421 
	C669.760498,319.922485 678.025879,338.138428 686.073120,356.449677 
	C687.822083,360.429382 690.312561,361.895447 694.524475,361.817261 
	C704.517395,361.631805 714.515991,361.759857 724.512329,361.757233 
	C731.009888,361.755493 737.512268,361.897888 744.003418,361.691803 
	C748.896545,361.536438 750.894348,358.446472 749.060303,354.492645 
	C740.176697,335.341522 731.302002,316.186279 722.009521,296.400879 
M655.348206,333.138947 
	C653.944275,330.509918 652.398926,327.945740 651.158752,325.241577 
	C641.233276,303.599579 631.433044,281.899963 621.461243,260.279388 
	C611.186523,238.002106 600.758728,215.795425 590.403809,193.555054 
	C584.059143,179.927887 577.874207,166.221985 571.209778,152.753220 
	C570.319763,150.954575 567.072510,149.458206 564.839050,149.343918 
	C556.865662,148.935944 548.858704,149.184402 540.864441,149.184113 
	C530.205444,149.183731 519.545715,149.109772 508.887634,149.210526 
	C502.689697,149.269119 501.066193,152.208847 503.591125,157.654877 
	C508.542023,168.333557 513.081299,179.207520 518.229614,189.787201 
	C519.597717,192.598602 522.632263,196.699402 524.775391,196.623871 
	C530.323181,196.428391 531.850830,199.682739 533.518433,203.447876 
	C534.589966,205.867203 535.325562,208.436646 536.419373,210.844498 
	C545.924072,231.767532 555.536804,252.641602 564.998169,273.584106 
	C577.374939,300.979584 589.713074,328.393158 601.884521,355.880157 
	C603.774170,360.147522 606.321350,361.900940 611.009583,361.836945 
	C626.495605,361.625549 641.986328,361.769897 657.475220,361.752533 
	C665.280701,361.743805 667.126160,359.007935 663.990845,351.850586 
	C661.336121,345.790161 658.465820,339.824127 655.348206,333.138947 
M537.503357,361.757904 
	C549.830200,361.757355 562.157288,361.797028 574.483887,361.740906 
	C581.659485,361.708221 583.472412,358.770569 580.458008,352.295319 
	C574.392822,339.267029 568.321960,326.241394 562.258179,313.212494 
	C553.331787,294.032928 544.427551,274.843048 535.480225,255.673279 
	C527.353027,238.260757 519.137024,220.889587 511.041107,203.462616 
	C503.288879,186.775482 495.771240,169.976990 487.775421,153.408478 
	C486.816162,151.420837 483.598969,149.589783 481.273010,149.375977 
	C475.161224,148.814102 468.963715,149.184280 462.800354,149.184464 
	C452.805725,149.184738 442.810272,149.111862 432.816742,149.216873 
	C427.464752,149.273102 424.936432,152.213745 426.625641,156.097198 
	C429.195312,162.004715 431.758240,167.916031 434.414001,173.785019 
	C448.339478,204.558807 462.342316,235.297699 476.215790,266.094849 
	C482.780365,280.667206 489.040253,295.376587 495.576416,309.961975 
	C502.605469,325.647186 509.656555,341.326813 517.076965,356.827454 
	C518.116760,358.999481 521.137878,361.100586 523.551697,361.542877 
	C527.742126,362.310638 532.174683,361.757080 537.503357,361.757904 
z"/>
<path fill="#2C2D3C" opacity="1.000000" stroke="none" 
	d="
M2047.750244,238.387512 
	C2053.114502,252.792984 2058.192139,266.882477 2063.456787,280.901917 
	C2074.158691,309.401581 2084.978516,337.857147 2095.707764,366.346588 
	C2097.635254,371.465210 2099.362305,376.659454 2101.587646,382.968719 
	C2103.983398,376.805847 2106.038330,371.656494 2107.992676,366.469299 
	C2120.884033,332.255890 2133.809814,298.055084 2146.611328,263.808105 
	C2155.239502,240.726074 2163.591553,217.540894 2172.233887,194.464172 
	C2181.950195,168.518906 2191.889648,142.657425 2201.662354,116.733131 
	C2207.627930,100.907921 2213.584229,85.077065 2219.299561,69.160782 
	C2221.869385,62.004204 2227.950195,59.665234 2234.126709,59.268951 
	C2243.641113,58.658527 2253.296631,59.201160 2262.819580,60.060017 
	C2273.013672,60.979431 2274.783936,68.129677 2275.983643,76.030937 
	C2276.107178,76.845444 2276.000000,77.695023 2276.000000,78.528305 
	C2276.000000,205.520996 2276.017334,332.513672 2275.974854,459.506378 
	C2275.970215,472.997070 2269.901611,478.913849 2256.574951,478.944427 
	C2250.168945,478.959137 2243.739502,478.619507 2237.359619,478.022491 
	C2227.210938,477.072876 2224.978760,469.645264 2224.016357,461.655304 
	C2223.897461,460.669678 2224.000000,459.657379 2224.000000,458.657440 
	C2224.000000,373.495667 2224.000000,288.333893 2224.000000,203.172119 
	C2224.000000,201.340637 2224.000000,199.509171 2224.000000,197.677689 
	C2223.820068,197.621506 2223.640137,197.565308 2223.460205,197.509125 
	C2220.112793,206.715576 2216.757324,215.919128 2213.419189,225.129059 
	C2202.443604,255.413177 2191.467041,285.696869 2180.504639,315.985870 
	C2166.527100,354.606049 2152.560303,393.230072 2138.595459,431.854767 
	C2134.050781,444.424713 2129.510498,456.996399 2124.999756,469.578644 
	C2122.526123,476.478516 2116.337158,478.223816 2110.364258,478.772491 
	C2103.710205,479.383698 2096.878906,478.585632 2090.170898,477.928436 
	C2084.045410,477.328339 2080.343262,473.232422 2078.343018,467.722351 
	C2067.406006,437.593994 2056.542236,407.438995 2045.693115,377.278870 
	C2032.063721,339.389496 2018.517456,301.470154 2004.848999,263.594940 
	C1996.647583,240.868805 1988.282227,218.201721 1979.979736,195.512115 
	C1979.839966,195.130310 1979.562012,194.799057 1979.000000,193.864365 
	C1979.000000,196.345978 1979.000000,198.148346 1979.000000,199.950714 
	C1979.000000,286.945709 1978.942017,373.940796 1979.074097,460.935577 
	C1979.090576,471.744995 1974.689331,477.295654 1963.953003,478.721741 
	C1956.550293,479.705017 1948.798828,478.759216 1941.276245,477.974396 
	C1930.534180,476.853638 1929.212769,469.268372 1928.018188,462.065643 
	C1927.883789,461.254669 1928.000000,460.402069 1928.000000,459.568787 
	C1928.000000,332.576080 1927.987427,205.583405 1928.018433,78.590714 
	C1928.021729,65.154984 1934.006592,59.011318 1947.827881,59.017410 
	C1955.479126,59.020786 1963.180664,58.692524 1970.767944,59.441624 
	C1978.655396,60.220371 1982.891846,65.559784 1985.581177,72.930756 
	C1995.849609,101.074203 2006.446411,129.098297 2016.988281,157.141510 
	C2027.131470,184.123962 2037.358276,211.074997 2047.750244,238.387512 
z"/>
<path fill="#2C2D3C" opacity="1.000000" stroke="none" 
	d="
M1549.000000,307.000000 
	C1549.000000,319.665405 1549.337280,331.842377 1548.921753,343.993561 
	C1548.280151,362.756195 1546.646484,381.440521 1540.819336,399.461212 
	C1532.578125,424.947510 1516.867920,444.746307 1494.776733,459.675140 
	C1478.524170,470.658325 1460.284180,476.705200 1441.226685,479.805176 
	C1425.918701,482.295288 1410.340698,484.071899 1394.856934,484.282288 
	C1377.965576,484.511780 1361.067383,483.216827 1344.347168,479.365479 
	C1329.263794,475.891205 1314.758789,471.458344 1301.155029,464.045105 
	C1282.950073,454.124634 1268.507446,440.422882 1257.867310,422.566437 
	C1247.973389,405.962402 1242.977783,387.879883 1241.067505,368.873444 
	C1239.998413,358.236298 1239.137329,347.527527 1239.090820,336.847076 
	C1238.882202,289.019592 1238.643921,241.186951 1239.141602,193.363739 
	C1239.414062,167.186127 1243.024902,141.373001 1256.140503,118.045815 
	C1260.248413,110.739662 1265.665527,104.088570 1271.026367,97.585297 
	C1281.229248,85.208229 1294.303589,76.481743 1308.719727,69.750618 
	C1322.720947,63.213276 1337.659912,59.903877 1352.750977,56.892826 
	C1372.593384,52.933716 1392.659912,53.146259 1412.537354,54.274052 
	C1443.582886,56.035503 1473.621216,62.891346 1499.552490,81.326103 
	C1522.313843,97.507195 1536.373413,119.809410 1543.060547,146.927795 
	C1546.249756,159.861206 1548.423706,172.832092 1548.037354,186.198776 
	C1547.830444,193.357422 1548.358765,200.549667 1547.904297,207.685287 
	C1547.459351,214.669983 1542.989014,219.175903 1536.253784,219.698349 
	C1527.151855,220.404388 1517.821899,220.860931 1508.833740,219.635727 
	C1498.598267,218.240463 1496.946655,212.840057 1496.128662,203.558838 
	C1495.487305,196.282776 1496.399658,188.878922 1495.923096,181.577454 
	C1494.622925,161.655899 1489.370239,143.022461 1474.820923,128.492996 
	C1464.356812,118.043083 1450.944824,112.412109 1436.750610,109.115547 
	C1418.510376,104.879288 1399.832031,103.957787 1381.256958,105.220291 
	C1367.417114,106.160950 1353.675171,108.031815 1340.214355,112.702461 
	C1317.189575,120.691597 1302.936035,136.229324 1296.163818,159.029755 
	C1294.286377,165.350632 1293.193481,172.139191 1293.128418,178.726883 
	C1292.571289,235.142838 1292.088867,291.562317 1292.170288,347.979858 
	C1292.190918,362.241638 1294.352051,376.450836 1300.304932,389.805908 
	C1309.187866,409.734924 1325.253296,421.057465 1345.418091,426.799225 
	C1355.178467,429.578400 1365.466797,430.800140 1375.606689,431.862488 
	C1384.961792,432.842621 1394.468628,433.311432 1403.854248,432.863434 
	C1422.391235,431.978668 1440.744995,429.667175 1457.648682,421.048645 
	C1471.801636,413.832642 1481.977783,403.162445 1488.422363,388.410522 
	C1493.912720,375.842926 1495.869019,362.870453 1495.971924,349.435272 
	C1496.091797,333.802094 1496.000000,318.167297 1496.000000,302.000000 
	C1493.926514,302.000000 1492.153076,302.000000 1490.379761,302.000000 
	C1456.716553,302.000000 1423.050293,301.737915 1389.391724,302.132935 
	C1376.485474,302.284424 1371.281494,294.679047 1371.082642,283.812408 
	C1370.956299,276.914398 1371.285400,269.964020 1372.030518,263.104492 
	C1373.130981,252.974976 1380.336426,250.203400 1388.102783,250.153870 
	C1436.095947,249.847870 1484.092163,249.920349 1532.086792,250.063980 
	C1542.346313,250.094681 1548.883911,257.124817 1548.973022,267.504730 
	C1549.084717,280.502258 1549.000000,293.501495 1549.000000,307.000000 
z"/>
<path fill="#2C2D3C" opacity="1.000000" stroke="none" 
	d="
M1129.336670,288.273254 
	C1126.344238,289.549866 1123.683960,290.607422 1120.518677,291.865723 
	C1122.954712,297.417847 1125.287231,302.881775 1127.737671,308.292358 
	C1136.128662,326.819763 1144.594360,345.313354 1152.969849,363.847809 
	C1165.461670,391.490997 1177.905762,419.155853 1190.356445,446.817627 
	C1191.944458,450.345825 1193.572876,453.863403 1194.973022,457.467316 
	C1200.507568,471.713409 1190.521606,478.180481 1180.754639,478.819916 
	C1172.567139,479.355927 1164.276978,478.351105 1156.033447,477.998810 
	C1150.067993,477.743866 1146.367798,474.036713 1144.099976,469.130829 
	C1134.281616,447.890930 1124.699707,426.541718 1115.031982,405.232269 
	C1101.563599,375.545746 1088.080322,345.865997 1074.643066,316.165405 
	C1072.585938,311.618500 1070.885010,306.905365 1068.699829,302.424988 
	C1068.153931,301.305695 1066.368164,300.104492 1065.148315,300.100342 
	C1028.995361,299.977112 992.841797,300.000336 956.000000,300.000336 
	C956.000000,301.898254 956.000000,303.650848 956.000000,305.403412 
	C956.000000,357.065979 955.859802,408.729218 956.096252,460.390717 
	C956.157104,473.696930 951.167786,477.302307 940.822266,478.695068 
	C932.769836,479.779144 924.340149,478.768585 916.151611,477.951813 
	C906.125427,476.951721 904.218384,470.054657 903.016296,461.941010 
	C902.895508,461.125671 903.000000,460.276886 903.000000,459.443634 
	C903.000000,332.453674 902.982239,205.463715 903.026123,78.473770 
	C903.030762,65.029984 909.069763,59.055397 922.444275,59.028698 
	C962.440918,58.948860 1002.438110,58.918674 1042.434570,59.045940 
	C1055.692139,59.088127 1069.010864,58.972942 1082.189941,60.165432 
	C1101.260254,61.890991 1120.116089,65.593742 1137.399170,74.220329 
	C1164.272095,87.633621 1181.693970,108.958214 1187.880493,138.643021 
	C1189.636719,147.070480 1190.193970,155.771591 1190.939697,164.378540 
	C1191.566040,171.610245 1192.129150,178.901505 1191.909790,186.141876 
	C1191.346313,204.747986 1189.693848,223.343811 1181.691406,240.440445 
	C1173.912476,257.059326 1161.910522,270.369202 1146.115479,279.907715 
	C1140.896484,283.059265 1135.165649,285.362823 1129.336670,288.273254 
M1049.500000,111.000000 
	C1018.413025,111.000000 987.325989,111.000000 956.308838,111.000000 
	C956.308838,156.992279 956.308838,202.382843 956.308838,247.999954 
	C957.763245,247.999954 958.909729,247.999954 960.056152,247.999954 
	C997.378967,247.999969 1034.703491,248.190948 1072.023438,247.862915 
	C1081.114990,247.783005 1090.462891,247.052490 1099.223999,244.798477 
	C1124.864990,238.201599 1138.060791,222.955032 1138.874023,195.370850 
	C1139.269043,181.975967 1138.690918,168.520401 1137.885986,155.132401 
	C1137.253784,144.615860 1132.666504,135.271561 1125.078491,128.150040 
	C1114.031860,117.782509 1099.990479,113.465851 1085.247803,112.141060 
	C1073.724121,111.105530 1062.086792,111.333466 1049.500000,111.000000 
z"/>
<path fill="#2C2D3C" opacity="1.000000" stroke="none" 
	d="
M2666.912598,331.574890 
	C2676.381836,331.183685 2685.586670,330.451996 2694.676514,331.173828 
	C2704.643799,331.965363 2707.626709,336.325714 2708.878662,348.451965 
	C2709.559570,355.048096 2708.728271,361.785736 2709.056885,368.435913 
	C2709.736816,382.204498 2714.852783,394.304840 2724.071533,404.506775 
	C2738.510742,420.486023 2757.222412,428.462799 2778.089355,430.793060 
	C2793.644043,432.530090 2809.465820,433.444183 2825.076416,432.723511 
	C2845.343262,431.787811 2864.835938,426.480408 2881.309082,413.848846 
	C2896.806152,401.965973 2905.822021,386.314819 2906.008545,366.266876 
	C2906.099854,356.435028 2906.364014,346.692108 2901.871338,337.411652 
	C2895.667480,324.595245 2885.505127,315.797699 2873.436279,309.237366 
	C2852.170654,297.677826 2828.925537,291.441254 2805.771729,284.899902 
	C2777.099121,276.799377 2747.843018,270.268250 2721.254150,256.027863 
	C2700.737549,245.039612 2683.365479,230.798615 2673.532715,209.006912 
	C2668.350586,197.522583 2665.547119,185.428528 2664.979980,172.805298 
	C2664.259277,156.768661 2666.498779,141.176193 2671.989258,126.112587 
	C2678.703613,107.689438 2690.193115,92.760490 2705.851807,81.024338 
	C2723.887451,67.506584 2744.642090,61.086071 2766.492920,56.821819 
	C2785.397461,53.132637 2804.441895,53.001705 2823.304199,54.322662 
	C2846.261475,55.930416 2868.750244,60.881645 2889.509521,71.828117 
	C2918.936279,87.344589 2937.922852,111.013283 2945.934570,143.297379 
	C2949.760986,158.717712 2950.880615,174.510620 2949.839111,190.299927 
	C2949.214844,199.758728 2945.959229,205.663208 2933.471436,205.972595 
	C2927.142334,206.129364 2920.805664,205.961700 2914.472900,206.007843 
	C2900.637695,206.108643 2898.124756,199.068604 2897.137939,188.710434 
	C2896.429932,181.278183 2897.114746,173.721985 2896.973877,166.224899 
	C2896.745605,154.076614 2892.075928,143.569824 2884.653564,134.163361 
	C2872.404297,118.639290 2855.514648,111.137962 2836.708740,108.207207 
	C2823.285889,106.115295 2809.524658,104.888947 2795.968750,105.260452 
	C2775.715820,105.815491 2755.824707,109.437149 2739.006104,122.061592 
	C2726.029785,131.802048 2718.553467,144.650635 2717.907959,161.316452 
	C2717.453125,173.055573 2718.079102,184.586609 2726.142578,193.695038 
	C2731.581543,199.838715 2737.940430,205.707428 2744.995361,209.781235 
	C2767.685303,222.883377 2793.007568,229.125473 2818.033447,236.014557 
	C2846.026855,243.720581 2874.208984,250.951340 2899.942627,265.012726 
	C2920.734131,276.373718 2937.969971,291.526550 2948.491211,313.141052 
	C2954.273193,325.019073 2956.625977,337.880524 2958.164795,351.048401 
	C2960.482910,370.889038 2957.160156,389.823395 2949.783691,407.913574 
	C2945.807617,417.664520 2940.193359,427.075836 2933.743652,435.423798 
	C2918.662354,454.944427 2898.072266,467.209381 2874.843262,474.311188 
	C2860.987061,478.547455 2846.388428,480.489502 2832.027588,482.886810 
	C2824.131348,484.204926 2816.017090,485.064758 2808.033936,484.858948 
	C2780.417969,484.147095 2753.117676,480.703339 2727.531006,469.672455 
	C2703.739258,459.415466 2684.430664,443.498779 2671.273438,420.726105 
	C2663.041504,406.477600 2658.187500,391.115417 2657.136719,374.791809 
	C2656.399902,363.345551 2656.523682,351.784851 2657.223633,340.333954 
	C2657.506836,335.698151 2661.374023,332.389771 2666.912598,331.574890 
z"/>
<path fill="#2C2D3C" opacity="1.000000" stroke="none" 
	d="
M3309.000000,352.000000 
	C3309.000000,388.326019 3308.852051,424.153046 3309.090820,459.977478 
	C3309.161865,470.649506 3306.960449,476.598785 3294.696289,478.479523 
	C3286.744873,479.698853 3278.317627,479.670105 3270.355957,478.492767 
	C3260.452637,477.028259 3256.154053,472.812317 3256.096924,459.865967 
	C3255.864014,407.211060 3256.000000,354.554535 3256.000000,301.898590 
	C3256.000000,300.099762 3256.000000,298.300964 3256.000000,296.253174 
	C3193.938477,296.253174 3132.214355,296.253174 3070.000000,296.253174 
	C3070.000000,298.125000 3070.000000,299.904297 3070.000000,301.683594 
	C3070.000000,354.506165 3069.892334,407.329102 3070.088135,460.150940 
	C3070.128662,471.113586 3067.576172,476.807922 3055.530762,478.500793 
	C3047.331055,479.653168 3038.767334,478.522461 3030.389648,478.022675 
	C3020.911621,477.457184 3017.382568,470.029846 3017.083496,461.190063 
	C3016.728760,450.704224 3017.000000,440.197174 3017.000000,429.699310 
	C3017.000000,312.723175 3016.992432,195.747025 3017.010254,78.770882 
	C3017.012207,65.041931 3023.121338,58.991673 3036.642578,59.052967 
	C3043.717041,59.085033 3050.869629,59.114346 3057.841064,60.137775 
	C3066.348877,61.386688 3069.997559,66.379356 3069.998291,74.885231 
	C3070.002197,129.207489 3070.000000,183.529739 3070.000000,237.851990 
	C3070.000000,239.673950 3070.000000,241.495926 3070.000000,243.658630 
	C3131.884033,243.658630 3193.608643,243.658630 3256.000000,243.658630 
	C3256.000000,242.076691 3256.000000,240.321304 3256.000000,238.565918 
	C3256.000000,185.243469 3255.972900,131.920975 3256.018799,78.598564 
	C3256.030518,65.146568 3262.015625,58.942745 3275.814697,59.048878 
	C3282.889893,59.103298 3290.038574,59.129776 3297.013916,60.137901 
	C3305.335449,61.340595 3308.999023,66.472015 3308.999023,75.057571 
	C3309.000977,167.205048 3309.000000,259.352539 3309.000000,352.000000 
z"/>
<path fill="#2C2D3C" opacity="1.000000" stroke="none" 
	d="
M2352.000000,186.000000 
	C2352.000000,149.673859 2351.890137,113.847221 2352.057129,78.021866 
	C2352.118652,64.863739 2358.064697,59.084641 2370.892578,59.062283 
	C2444.377686,58.934181 2517.863281,58.906345 2591.347900,59.093357 
	C2603.418457,59.124073 2611.062500,64.105225 2610.055176,77.597221 
	C2609.708740,82.237083 2610.000000,86.924561 2610.000000,91.590286 
	C2610.000000,92.590088 2609.955566,93.592171 2610.007080,94.589325 
	C2610.543213,104.998123 2604.508545,111.044716 2593.551758,111.023270 
	C2560.558350,110.958702 2527.564941,110.999992 2494.571533,111.000000 
	C2464.927734,111.000000 2435.283936,111.000000 2405.320312,111.000000 
	C2405.320312,155.262115 2405.320312,199.322586 2405.320312,244.000000 
	C2406.980469,244.000000 2408.742676,244.000000 2410.504883,244.000000 
	C2461.494629,244.000000 2512.484619,243.946182 2563.473877,244.101089 
	C2567.600830,244.113632 2572.217041,244.669556 2575.698975,246.604767 
	C2578.715820,248.281403 2582.176514,252.140320 2582.421875,255.271118 
	C2583.194824,265.141937 2583.287598,275.204437 2582.216797,285.037384 
	C2581.365479,292.855865 2575.209717,295.925995 2568.439453,295.983917 
	C2560.441650,296.052368 2552.442871,296.000000 2544.444336,296.000000 
	C2499.953369,296.000000 2455.462158,296.000000 2410.971191,296.000000 
	C2409.165771,296.000000 2407.360352,296.000000 2405.278809,296.000000 
	C2405.278809,339.679077 2405.278809,383.072693 2405.278809,427.000000 
	C2407.075684,427.000000 2408.849121,427.000000 2410.622559,427.000000 
	C2471.443604,427.000000 2532.264893,426.994202 2593.085938,427.011200 
	C2597.851562,427.012543 2602.288330,427.495117 2606.041260,431.340454 
	C2608.965088,434.336365 2609.838135,437.719604 2609.945801,441.446259 
	C2610.138428,448.106018 2609.782471,454.783966 2610.045898,461.438873 
	C2610.584229,475.046234 2602.635742,477.467316 2593.310791,478.981903 
	C2592.499023,479.113800 2591.647461,479.000000 2590.814209,479.000000 
	C2517.662354,479.000031 2444.510254,479.034943 2371.358398,478.967712 
	C2358.176514,478.955627 2352.029541,473.075195 2352.022949,459.444611 
	C2351.978516,368.463074 2352.000000,277.481537 2352.000000,186.000000 
z"/>
<path fill="#2C2D3C" opacity="1.000000" stroke="none" 
	d="
M1884.324463,63.832775 
	C1888.398193,69.749184 1887.264404,75.446877 1885.256714,81.448418 
	C1862.863159,148.392059 1840.598022,215.378632 1818.270264,282.344330 
	C1797.880493,343.497345 1777.360596,404.607269 1757.159790,465.822510 
	C1754.385254,474.229767 1749.728882,477.293884 1740.520508,477.881989 
	C1731.890991,478.433167 1723.161133,478.502106 1714.543823,477.862366 
	C1705.454712,477.187622 1701.226074,475.486420 1698.003540,465.814636 
	C1663.107056,361.079193 1628.161377,256.360107 1593.268921,151.623337 
	C1585.373291,127.922943 1577.541626,104.200127 1569.914673,80.412529 
	C1568.766602,76.832008 1568.136963,72.741882 1568.603516,69.056625 
	C1569.657349,60.732647 1576.838013,58.769760 1583.323486,58.266243 
	C1591.818970,57.606689 1600.501831,58.234531 1609.004639,59.192413 
	C1614.671631,59.830841 1618.170410,63.758915 1620.077881,69.483948 
	C1630.213013,99.903671 1640.648926,130.222992 1650.902710,160.603363 
	C1665.640137,204.268143 1680.282837,247.964905 1695.018799,291.630188 
	C1705.683838,323.232971 1716.433716,354.807190 1727.168579,386.386383 
	C1727.248047,386.620117 1727.648926,386.744568 1728.376099,387.253235 
	C1732.286377,375.582916 1736.139526,364.079102 1739.995239,352.576141 
	C1750.340088,321.713928 1760.633667,290.834412 1771.049438,259.996216 
	C1778.268555,238.622940 1785.730225,217.331696 1792.954102,195.960037 
	C1807.092407,154.132889 1821.195801,112.293694 1835.176880,70.413857 
	C1837.856201,62.387974 1843.672852,58.540768 1851.445435,58.175053 
	C1859.483398,57.796848 1867.620972,58.300301 1875.629639,59.187592 
	C1878.560669,59.512321 1881.247070,62.045105 1884.324463,63.832775 
z"/>
<path fill="#67E994" opacity="1.000000" stroke="none" 
	d="
M117.613586,304.396484 
	C86.267776,255.049637 55.113060,206.010864 24.034885,156.923630 
	C23.069099,155.398193 22.013287,152.944412 22.613087,151.703217 
	C23.161507,150.568329 25.896883,150.034561 27.674604,150.020737 
	C43.499516,149.897736 59.328438,150.135117 75.151085,149.909317 
	C105.746941,149.472717 131.546768,161.030807 154.312073,180.708099 
	C168.704086,193.147919 178.228226,209.233200 187.850830,225.181625 
	C192.266846,232.500687 195.969986,240.394745 198.850815,248.438354 
	C200.460312,252.932251 199.451752,258.305298 200.149628,263.207214 
	C200.538269,265.936981 201.343964,269.102020 203.090347,271.068665 
	C224.655594,295.353638 246.428909,319.453888 268.149200,343.601196 
	C271.378998,347.191895 274.707520,350.700928 277.778992,354.422211 
	C278.586823,355.400909 279.216766,357.285034 278.802856,358.289642 
	C278.426208,359.203674 276.524994,359.966614 275.289154,359.976624 
	C261.130096,360.090973 246.967300,360.174835 232.812683,359.898712 
	C230.902069,359.861420 228.606476,358.185242 227.205338,356.624817 
	C207.286697,334.442139 187.399521,312.229187 167.762268,289.798065 
	C164.677948,286.274963 161.590393,285.205353 156.589340,286.383301 
	C157.528168,288.038910 158.302917,289.551880 159.209274,290.981445 
	C172.401840,311.789185 185.634476,332.571594 198.766907,353.417175 
	C199.635040,354.795197 200.653336,357.359467 200.048737,358.094421 
	C199.058060,359.298737 196.797287,359.951019 195.062088,359.971313 
	C182.403122,360.119080 169.740387,359.955688 157.081833,360.120026 
	C154.042526,360.159454 152.290695,359.183990 150.673492,356.598114 
	C139.816559,339.238129 128.788651,321.985046 117.613586,304.396484 
M135.517334,241.004028 
	C136.183228,241.004028 136.862778,241.090759 137.512589,240.988510 
	C139.890778,240.614304 142.259064,240.177124 144.631088,239.763702 
	C143.834702,237.174072 143.508545,234.302902 142.157104,232.045563 
	C137.373260,224.055008 131.835815,216.497330 127.333687,208.360764 
	C120.877579,196.692810 111.402443,192.771805 98.710884,195.480576 
	C98.696167,195.632584 98.611916,195.828918 98.676582,195.930298 
	C106.995201,208.974136 115.561989,221.868530 123.524292,235.125977 
	C126.287010,239.725983 129.292938,242.033401 135.517334,241.004028 
z"/>
<path fill="#67E994" opacity="1.000000" stroke="none" 
	d="
M304.000000,243.998352 
	C313.499176,243.998444 322.504425,243.825317 331.492676,244.138962 
	C333.380768,244.204849 335.935425,245.589783 336.950439,247.162384 
	C350.134796,267.590485 363.200745,288.097290 376.065460,308.728333 
	C381.577057,317.567322 385.522186,326.963654 385.089355,337.830292 
	C384.744293,346.493622 381.678253,353.851898 374.069580,357.699249 
	C367.869598,360.834290 360.686951,363.520905 353.869965,363.697205 
	C311.211884,364.800537 278.410583,345.208130 254.960464,311.179382 
	C230.408401,275.551666 207.990723,238.437119 185.188354,201.632797 
	C180.558044,194.159210 177.430069,185.402283 175.324661,176.816391 
	C173.229691,168.273056 178.275269,154.913147 190.754410,149.927078 
	C200.665665,145.967026 210.825684,145.693237 221.455215,146.771561 
	C240.290527,148.682297 257.036102,155.526566 272.605072,165.778915 
	C287.561646,175.628006 299.896545,188.082764 309.312408,203.385117 
	C313.413910,210.050735 317.756958,216.567688 321.863647,223.230209 
	C324.056183,226.787323 322.880249,228.877747 318.660065,228.901367 
	C305.328369,228.976044 291.994049,229.036346 278.666199,228.797668 
	C276.948914,228.766907 274.656952,227.352112 273.664825,225.881226 
	C268.358734,218.014664 263.444305,209.885452 258.269867,201.928040 
	C253.890900,195.193939 247.421722,191.628265 239.558823,191.067291 
	C237.211395,190.899826 233.911636,191.844803 232.607819,193.504959 
	C231.710159,194.647903 232.962112,198.237732 234.168549,200.159363 
	C249.399124,224.418564 264.794556,248.574280 280.151550,272.754120 
	C287.651245,284.562500 295.052643,296.435211 302.701050,308.146545 
	C307.519440,315.524536 314.661530,319.118652 323.422455,318.997559 
	C328.752167,318.923920 330.405792,315.986664 327.720398,311.462341 
	C323.557159,304.448242 319.177979,297.552216 314.594238,290.807373 
	C313.812347,289.656799 311.426147,288.776855 309.995117,289.021881 
	C301.552704,290.467255 296.746918,286.798645 292.775787,279.463531 
	C287.318420,269.383148 280.592834,259.992828 274.531097,250.232010 
	C273.739777,248.957779 272.864532,246.638992 273.443695,245.869781 
	C274.293121,244.741516 276.410706,244.107635 278.003815,244.076553 
	C286.499817,243.910843 295.000763,243.998413 304.000000,243.998352 
z"/>
<path fill="#67E993" opacity="1.000000" stroke="none" 
	d="
M351.456299,242.532990 
	C328.416077,214.220642 305.600800,186.185425 282.786987,158.149002 
	C281.946106,157.115631 281.063721,156.109940 280.297363,155.023178 
	C278.211029,152.064468 279.134583,150.058365 282.602081,150.020523 
	C296.596771,149.867783 310.595520,149.871552 324.588440,150.091370 
	C325.998779,150.113525 327.701752,151.731491 328.728027,153.034805 
	C357.669922,189.789612 386.542175,226.599243 416.249115,263.134888 
	C415.615356,261.345825 415.145508,259.477448 414.323578,257.779480 
	C398.082703,224.226807 381.798462,190.695129 365.529999,157.155823 
	C362.561340,151.035645 363.253632,149.956802 370.139160,149.951340 
	C382.136078,149.941849 394.134766,150.062042 406.128754,149.873978 
	C409.377441,149.823029 411.101593,150.675964 412.523773,153.806976 
	C442.801819,220.465256 473.216553,287.061401 503.582214,353.679901 
	C505.869751,358.698456 505.015533,360.027069 499.559479,360.038788 
	C483.397064,360.073486 467.232330,360.177765 451.074463,359.903961 
	C448.844635,359.866180 445.969177,358.402069 444.537628,356.658295 
	C419.172089,325.760498 393.986969,294.714600 368.755615,263.706604 
	C363.078369,256.729553 357.373535,249.774887 351.456299,242.532990 
z"/>
<path fill="#67E994" opacity="1.000000" stroke="none" 
	d="
M722.216797,296.716705 
	C731.302002,316.186279 740.176697,335.341522 749.060303,354.492645 
	C750.894348,358.446472 748.896545,361.536438 744.003418,361.691803 
	C737.512268,361.897888 731.009888,361.755493 724.512329,361.757233 
	C714.515991,361.759857 704.517395,361.631805 694.524475,361.817261 
	C690.312561,361.895447 687.822083,360.429382 686.073120,356.449677 
	C678.025879,338.138428 669.760498,319.922485 661.498291,301.706421 
	C651.797119,280.317871 641.945251,258.997467 632.302429,237.582870 
	C626.952148,225.701202 621.811401,213.722656 616.759888,201.710541 
	C615.381958,198.433914 613.774902,196.366455 609.825745,196.993622 
	C606.430359,197.532822 604.856384,195.356155 603.553223,192.495163 
	C598.046082,180.404709 592.368225,168.392029 586.753296,156.350677 
	C585.071289,152.743454 586.978394,149.634506 591.382996,149.262131 
	C594.526672,148.996368 597.709412,149.186249 600.874756,149.185577 
	C616.702271,149.182251 632.530579,149.267181 648.356750,149.122543 
	C652.233948,149.087097 654.475159,150.534943 656.062683,154.051346 
	C664.659363,173.093353 673.331482,192.102310 682.132263,211.050827 
	C690.213562,228.450439 698.529175,245.741058 706.668274,263.114044 
	C711.851196,274.177246 716.900391,285.303101 722.216797,296.716705 
z"/>
<path fill="#67E994" opacity="1.000000" stroke="none" 
	d="
M655.519531,333.477661 
	C658.465820,339.824127 661.336121,345.790161 663.990845,351.850586 
	C667.126160,359.007935 665.280701,361.743805 657.475220,361.752533 
	C641.986328,361.769897 626.495605,361.625549 611.009583,361.836945 
	C606.321350,361.900940 603.774170,360.147522 601.884521,355.880157 
	C589.713074,328.393158 577.374939,300.979584 564.998169,273.584106 
	C555.536804,252.641602 545.924072,231.767532 536.419373,210.844498 
	C535.325562,208.436646 534.589966,205.867203 533.518433,203.447876 
	C531.850830,199.682739 530.323181,196.428391 524.775391,196.623871 
	C522.632263,196.699402 519.597717,192.598602 518.229614,189.787201 
	C513.081299,179.207520 508.542023,168.333557 503.591125,157.654877 
	C501.066193,152.208847 502.689697,149.269119 508.887634,149.210526 
	C519.545715,149.109772 530.205444,149.183731 540.864441,149.184113 
	C548.858704,149.184402 556.865662,148.935944 564.839050,149.343918 
	C567.072510,149.458206 570.319763,150.954575 571.209778,152.753220 
	C577.874207,166.221985 584.059143,179.927887 590.403809,193.555054 
	C600.758728,215.795425 611.186523,238.002106 621.461243,260.279388 
	C631.433044,281.899963 641.233276,303.599579 651.158752,325.241577 
	C652.398926,327.945740 653.944275,330.509918 655.519531,333.477661 
z"/>
<path fill="#67E994" opacity="1.000000" stroke="none" 
	d="
M537.004517,361.757751 
	C532.174683,361.757080 527.742126,362.310638 523.551697,361.542877 
	C521.137878,361.100586 518.116760,358.999481 517.076965,356.827454 
	C509.656555,341.326813 502.605469,325.647186 495.576416,309.961975 
	C489.040253,295.376587 482.780365,280.667206 476.215790,266.094849 
	C462.342316,235.297699 448.339478,204.558807 434.414001,173.785019 
	C431.758240,167.916031 429.195312,162.004715 426.625641,156.097198 
	C424.936432,152.213745 427.464752,149.273102 432.816742,149.216873 
	C442.810272,149.111862 452.805725,149.184738 462.800354,149.184464 
	C468.963715,149.184280 475.161224,148.814102 481.273010,149.375977 
	C483.598969,149.589783 486.816162,151.420837 487.775421,153.408478 
	C495.771240,169.976990 503.288879,186.775482 511.041107,203.462616 
	C519.137024,220.889587 527.353027,238.260757 535.480225,255.673279 
	C544.427551,274.843048 553.331787,294.032928 562.258179,313.212494 
	C568.321960,326.241394 574.392822,339.267029 580.458008,352.295319 
	C583.472412,358.770569 581.659485,361.708221 574.483887,361.740906 
	C562.157288,361.797028 549.830200,361.757355 537.004517,361.757751 
z"/>
<path fill="#FFFFFF" opacity="1.000000" stroke="none" 
	d="
M1050.000000,111.000000 
	C1062.086792,111.333466 1073.724121,111.105530 1085.247803,112.141060 
	C1099.990479,113.465851 1114.031860,117.782509 1125.078491,128.150040 
	C1132.666504,135.271561 1137.253784,144.615860 1137.885986,155.132401 
	C1138.690918,168.520401 1139.269043,181.975967 1138.874023,195.370850 
	C1138.060791,222.955032 1124.864990,238.201599 1099.223999,244.798477 
	C1090.462891,247.052490 1081.114990,247.783005 1072.023438,247.862915 
	C1034.703491,248.190948 997.378967,247.999969 960.056152,247.999954 
	C958.909729,247.999954 957.763245,247.999954 956.308838,247.999954 
	C956.308838,202.382843 956.308838,156.992279 956.308838,111.000000 
	C987.325989,111.000000 1018.413025,111.000000 1050.000000,111.000000 
z"/>
<path fill="#2D303D" opacity="1.000000" stroke="none" 
	d="
M135.047607,241.004028 
	C129.292938,242.033401 126.287010,239.725983 123.524292,235.125977 
	C115.561989,221.868530 106.995201,208.974136 98.676582,195.930298 
	C98.611916,195.828918 98.696167,195.632584 98.709671,195.483261 
	C111.402443,192.771805 120.877579,196.692810 127.333687,208.360764 
	C131.835815,216.497330 137.373260,224.055008 142.157104,232.045563 
	C143.508545,234.302902 143.834702,237.174072 144.631088,239.763702 
	C142.259064,240.177124 139.890778,240.614304 137.512589,240.988510 
	C136.862778,241.090759 136.183228,241.004028 135.047607,241.004028 
z"/>
</svg>